{
  "accessors": [
    {
      "bufferView": 2,
      "componentType": 5126,
      "count": 313,
      "max": [
        2.8060998916625977,
        19.0,
        1.9787296056747437
      ],
      "min": [
        -2.9161009788513184,
        -19.0,
        -40.96317672729492
      ],
      "type": "VEC3"
    },
    {
      "bufferView": 2,
      "byteOffset": 3756,
      "componentType": 5126,
      "count": 313,
      "max": [
        1.0,
        1.0,
        1.0
      ],
      "min": [
        -1.0,
        -1.0,
        -1.0
      ],
      "type": "VEC3"
    },
    {
      "bufferView": 3,
      "componentType": 5126,
      "count": 313,
      "max": [
        1.0,
        1.0,
        1.0,
        1.0
      ],
      "min": [
        -1.0,
        -1.0,
        -1.0,
        -1.0
      ],
      "type": "VEC4"
    },
    {
      "bufferView": 1,
      "componentType": 5126,
      "count": 313,
      "max": [
        0.9570389986038208,
        0.6993560194969177
      ],
      "min": [
        0.005166000220924616,
        0.0007810000097379088
      ],
      "type": "VEC2"
    },
    {
      "bufferView": 0,
      "componentType": 5125,
      "count": 771,
      "type": "SCALAR"
    },
    {
      "bufferView": 2,
      "byteOffset": 7512,
      "componentType": 5126,
      "count": 518,
      "max": [
        6.735073089599609,
        22.129989624023438,
        -28.599897384643555
      ],
      "min": [
        1.346047043800354,
        -22.141380310058594,
        -46.9452018737793
      ],
      "type": "VEC3"
    },
    {
      "bufferView": 2,
      "byteOffset": 13728,
      "componentType": 5126,
      "count": 518,
      "max": [
        1.0,
        1.0,
        1.0
      ],
      "min": [
        -1.0,
        -1.0,
        -1.0
      ],
      "type": "VEC3"
    },
    {
      "bufferView": 3,
      "byteOffset": 5008,
      "componentType": 5126,
      "count": 518,
      "max": [
        1.0,
        1.0,
        1.0,
        1.0
      ],
      "min": [
        -1.0,
        -1.0,
        -1.0,
        -1.0
      ],
      "type": "VEC4"
    },
    {
      "bufferView": 1,
      "byteOffset": 2504,
      "componentType": 5126,
      "count": 518,
      "max": [
        0.9537979960441589,
        0.9986889958381653
      ],
      "min": [
        0.0013460000045597553,
        0.003169999923557043
      ],
      "type": "VEC2"
    },
    {
      "bufferView": 0,
      "byteOffset": 3084,
      "componentType": 5125,
      "count": 858,
      "type": "SCALAR"
    },
    {
      "bufferView": 2,
      "byteOffset": 19944,
      "componentType": 5126,
      "count": 2164,
      "max": [
        2.0100009441375732,
        22.1253662109375,
        -11.44787883758545
      ],
      "min": [
        -7.989999771118164,
        -22.125167846679688,
        -46.92698669433594
      ],
      "type": "VEC3"
    },
    {
      "bufferView": 2,
      "byteOffset": 45912,
      "componentType": 5126,
      "count": 2164,
      "max": [
        1.0,
        1.0,
        1.0
      ],
      "min": [
        -1.0,
        -1.0,
        -1.0
      ],
      "type": "VEC3"
    },
    {
      "bufferView": 3,
      "byteOffset": 13296,
      "componentType": 5126,
      "count": 2164,
      "max": [
        1.0,
        1.0,
        1.0,
        1.0
      ],
      "min": [
        -1.0,
        -1.0,
        -1.0,
        -1.0
      ],
      "type": "VEC4"
    },
    {
      "bufferView": 1,
      "byteOffset": 6648,
      "componentType": 5126,
      "count": 2164,
      "max": [
        0.9554769992828369,
        0.7039859890937805
      ],
      "min": [
        0.2939079999923706,
        0.0017320000333711505
      ],
      "type": "VEC2"
    },
    {
      "bufferView": 0,
      "byteOffset": 6516,
      "componentType": 5125,
      "count": 3336,
      "type": "SCALAR"
    },
    {
      "bufferView": 2,
      "byteOffset": 71880,
      "componentType": 5126,
      "count": 16,
      "max": [
        0.5026254653930664,
        10.674999237060547,
        5.468669891357422
      ],
      "min": [
        -1.9504996538162231,
        7.274998188018799,
        -5.4688334465026855
      ],
      "type": "VEC3"
    },
    {
      "bufferView": 2,
      "byteOffset": 72072,
      "componentType": 5126,
      "count": 16,
      "max": [
        0.0,
        1.0,
        -0.0
      ],
      "min": [
        0.0,
        1.0,
        -0.0
      ],
      "type": "VEC3"
    },
    {
      "bufferView": 3,
      "byteOffset": 47920,
      "componentType": 5126,
      "count": 16,
      "max": [
        1.0,
        0.0,
        3.1223521546053234e-06,
        -1.0
      ],
      "min": [
        -1.0,
        0.0,
        -3.042900971195195e-05,
        -1.0
      ],
      "type": "VEC4"
    },
    {
      "bufferView": 1,
      "byteOffset": 23960,
      "componentType": 5126,
      "count": 16,
      "max": [
        0.9983111619949341,
        0.9993172287940979
      ],
      "min": [
        0.9382261633872986,
        0.004457900766283274
      ],
      "type": "VEC2"
    },
    {
      "bufferView": 0,
      "byteOffset": 19860,
      "componentType": 5125,
      "count": 30,
      "type": "SCALAR"
    }
  ],
  "asset": {
    "extras": {
      "author": "Jotrain (https://sketchfab.com/Jotrain)",
      "license": "CC-BY-NC-4.0 (http://creativecommons.org/licenses/by-nc/4.0/)",
      "source": "https://sketchfab.com/3d-models/metal-advertising-billboard-single-sided-33c164cf9e4346d1b48eb0c49cb2643f",
      "title": "Metal Advertising Billboard Single Sided"
    },
    "generator": "Sketchfab-13.6.0",
    "version": "2.0"
  },
  "bufferViews": [
    {
      "buffer": 0,
      "byteLength": 19980,
      "name": "floatBufferViews",
      "target": 34963
    },
    {
      "buffer": 0,
      "byteLength": 24088,
      "byteOffset": 19980,
      "byteStride": 8,
      "name": "floatBufferViews",
      "target": 34962
    },
    {
      "buffer": 0,
      "byteLength": 72264,
      "byteOffset": 44068,
      "byteStride": 12,
      "name": "floatBufferViews",
      "target": 34962
    },
    {
      "buffer": 0,
      "byteLength": 48176,
      "byteOffset": 116332,
      "byteStride": 16,
      "name": "floatBufferViews",
      "target": 34962
    }
  ],
  "buffers": [
    {
      "byteLength": 164508,
      "uri": "scene.bin"
    }
  ],
  "images": [
    {
      "uri": "textures/billboard_large_01_baseColor.png"
    },
    {
      "uri": "textures/billboard_large_01_metallicRoughness.png"
    },
    {
      "uri": "textures/billboard_large_01_emissive.png"
    },
    {
      "uri": "textures/billboard_large_01_normal.png"
    }
  ],
  "materials": [
    {
      "alphaCutoff": 0.3,
      "alphaMode": "MASK",
      "doubleSided": true,
      "emissiveFactor": [
        0.8952498646994818,
        0.8952498646994818,
        0.8952498646994818
      ],
      "emissiveTexture": {
        "index": 2
      },
      "name": "billboard_large_01",
      "normalTexture": {
        "index": 3
      },
      "pbrMetallicRoughness": {
        "baseColorTexture": {
          "index": 0
        },
        "metallicFactor": 0.6,
        "metallicRoughnessTexture": {
          "index": 1
        },
        "roughnessFactor": 0.2537675544937451
      }
    }
  ],
  "meshes": [
    {
      "name": "Object_0",
      "primitives": [
        {
          "attributes": {
            "NORMAL": 1,
            "POSITION": 0,
            "TANGENT": 2,
            "TEXCOORD_0": 3
          },
          "indices": 4,
          "material": 0,
          "mode": 4
        }
      ]
    },
    {
      "name": "Object_1",
      "primitives": [
        {
          "attributes": {
            "NORMAL": 6,
            "POSITION": 5,
            "TANGENT": 7,
            "TEXCOORD_0": 8
          },
          "indices": 9,
          "material": 0,
          "mode": 4
        }
      ]
    },
    {
      "name": "Object_2",
      "primitives": [
        {
          "attributes": {
            "NORMAL": 11,
            "POSITION": 10,
            "TANGENT": 12,
            "TEXCOORD_0": 13
          },
          "indices": 14,
          "material": 0,
          "mode": 4
        }
      ]
    },
    {
      "name": "Object_3",
      "primitives": [
        {
          "attributes": {
            "NORMAL": 16,
            "POSITION": 15,
            "TANGENT": 17,
            "TEXCOORD_0": 18
          },
          "indices": 19,
          "material": 0,
          "mode": 4
        }
      ]
    }
  ],
  "nodes": [
    {
      "children": [
        1
      ],
      "matrix": [
        1.0,
        0.0,
        0.0,
        0.0,
        0.0,
        2.220446049250313e-16,
        -1.0,
        0.0,
        0.0,
        1.0,
        2.220446049250313e-16,
        0.0,
        0.0,
        0.0,
        0.0,
        1.0
      ],
      "name": "Sketchfab_model"
    },
    {
      "children": [
        2
      ],
      "name": "root"
    },
    {
      "children": [
        3,
        5,
        7,
        9
      ],
      "matrix": [
        1.0,
        0.0,
        0.0,
        0.0,
        0.0,
        2.220446049250313e-16,
        1.0,
        0.0,
        0.0,
        -1.0,
        2.220446049250313e-16,
        0.0,
        0.0,
        0.0,
        0.0,
        1.0
      ],
      "name": "GLTF_SceneRootNode"
    },
    {
      "children": [
        4
      ],
      "matrix": [
        0.25,
        0.0,
        0.0,
        0.0,
        0.0,
        -4.2146849232871375e-08,
        0.24999999999999645,
        0.0,
        0.0,
        -0.24999999999999645,
        -4.2146849232871375e-08,
        0.0,
        0.0,
        0.0,
        0.0,
        1.0
      ],
      "name": "Post_0"
    },
    {
      "mesh": 0,
      "name": "Object_4"
    },
    {
      "children": [
        6
      ],
      "matrix": [
        0.25,
        0.0,
        0.0,
        0.0,
        0.0,
        -4.2146849232871375e-08,
        0.24999999999999645,
        0.0,
        0.0,
        -0.24999999999999645,
        -4.2146849232871375e-08,
        0.0,
        0.0,
        0.0,
        0.0,
        1.0
      ],
      "name": "billboard_large_1"
    },
    {
      "mesh": 1,
      "name": "Object_6"
    },
    {
      "children": [
        8
      ],
      "matrix": [
        0.25,
        0.0,
        0.0,
        0.0,
        0.0,
        -4.2146849232871375e-08,
        0.24999999999999645,
        0.0,
        0.0,
        -0.24999999999999645,
        -4.2146849232871375e-08,
        0.0,
        0.0,
        0.0,
        0.0,
        1.0
      ],
      "name": "Platform_2"
    },
    {
      "mesh": 2,
      "name": "Object_8"
    },
    {
      "children": [
        10
      ],
      "name": "Alpha_3"
    },
    {
      "mesh": 3,
      "name": "Object_10"
    }
  ],
  "samplers": [
    {
      "magFilter": 9729,
      "minFilter": 9987,
      "wrapS": 10497,
      "wrapT": 10497
    }
  ],
  "scene": 0,
  "scenes": [
    {
      "name": "Sketchfab_Scene",
      "nodes": [
        0
      ]
    }
  ],
  "textures": [
    {
      "sampler": 0,
      "source": 0
    },
    {
      "sampler": 0,
      "source": 1
    },
    {
      "sampler": 0,
      "source": 2
    },
    {
      "sampler": 0,
      "source": 3
    }
  ]
}
