{
  "accessors": [
    {
      "bufferView": 2,
      "componentType": 5126,
      "count": 2248,
      "max": [
        0.12719863653182983,
        0.46156981587409973,
        0.020788300782442093
      ],
      "min": [
        -0.4873518943786621,
        -0.15298065543174744,
        -0.8834782242774963
      ],
      "type": "VEC3"
    },
    {
      "bufferView": 2,
      "byteOffset": 26976,
      "componentType": 5126,
      "count": 2248,
      "max": [
        0.9996485710144043,
        0.9990878701210022,
        1.0
      ],
      "min": [
        -0.9996484518051147,
        -0.9990878105163574,
        -1.0
      ],
      "type": "VEC3"
    },
    {
      "bufferView": 3,
      "componentType": 5126,
      "count": 2248,
      "max": [
        0.9992333054542542,
        0.9999971389770508,
        1.0,
        1.0
      ],
      "min": [
        -0.9990875720977783,
        -1.0,
        -1.0,
        -1.0
      ],
      "type": "VEC4"
    },
    {
      "bufferView": 1,
      "componentType": 5126,
      "count": 2248,
      "max": [
        0.8312397599220276,
        0.9997778534889221
      ],
      "min": [
        0.00022211670875549316,
        0.00022211670875549316
      ],
      "type": "VEC2"
    },
    {
      "bufferView": 0,
      "componentType": 5125,
      "count": 9384,
      "type": "SCALAR"
    }
  ],
  "asset": {
    "extras": {
      "author": "semenspl (https://sketchfab.com/semenspl)",
      "license": "CC-BY-4.0 (http://creativecommons.org/licenses/by/4.0/)",
      "source": "https://sketchfab.com/3d-models/barrel-fa378b57b8aa4300acb6bec2201814a7",
      "title": "Barrel"
    },
    "generator": "Sketchfab-12.74.0",
    "version": "2.0"
  },
  "bufferViews": [
    {
      "buffer": 0,
      "byteLength": 37536,
      "name": "floatBufferViews",
      "target": 34963
    },
    {
      "buffer": 0,
      "byteLength": 17984,
      "byteOffset": 37536,
      "byteStride": 8,
      "name": "floatBufferViews",
      "target": 34962
    },
    {
      "buffer": 0,
      "byteLength": 53952,
      "byteOffset": 55520,
      "byteStride": 12,
      "name": "floatBufferViews",
      "target": 34962
    },
    {
      "buffer": 0,
      "byteLength": 35968,
      "byteOffset": 109472,
      "byteStride": 16,
      "name": "floatBufferViews",
      "target": 34962
    }
  ],
  "buffers": [
    {
      "byteLength": 145440,
      "uri": "scene.bin"
    }
  ],
  "images": [
    {
      "uri": "textures/barrel_baseColor.png"
    },
    {
      "uri": "textures/barrel_metallicRoughness.png"
    },
    {
      "uri": "textures/barrel_normal.png"
    }
  ],
  "materials": [
    {
      "doubleSided": true,
      "name": "barrel",
      "normalTexture": {
        "index": 2
      },
      "occlusionTexture": {
        "index": 1
      },
      "pbrMetallicRoughness": {
        "baseColorTexture": {
          "index": 0
        },
        "metallicRoughnessTexture": {
          "index": 1
        }
      }
    }
  ],
  "meshes": [
    {
      "name": "barrel_barrel_0",
      "primitives": [
        {
          "attributes": {
            "NORMAL": 1,
            "POSITION": 0,
            "TANGENT": 2,
            "TEXCOORD_0": 3
          },
          "indices": 4,
          "material": 0,
          "mode": 4
        }
      ]
    }
  ],
  "nodes": [
    {
      "children": [
        1
      ],
      "matrix": [
        1.0,
        0.0,
        0.0,
        0.0,
        0.0,
        2.220446049250313e-16,
        -1.0,
        0.0,
        0.0,
        1.0,
        2.220446049250313e-16,
        0.0,
        0.0,
        0.0,
        0.0,
        1.0
      ],
      "name": "Sketchfab_model"
    },
    {
      "children": [
        2
      ],
      "matrix": [
        0.009999999776482582,
        0.0,
        0.0,
        0.0,
        0.0,
        0.0,
        0.009999999776482582,
        0.0,
        0.0,
        -0.009999999776482582,
        0.0,
        0.0,
        0.0,
        0.0,
        0.0,
        1.0
      ],
      "name": "barrel_gazprom.fbx"
    },
    {
      "children": [
        3
      ],
      "name": "RootNode"
    },
    {
      "children": [
        4
      ],
      "matrix": [
        65.76505983906826,
        5.551114699609309e-15,
        75.33229970261709,
        0.0,
        75.33229970261702,
        -4.371138650613578e-06,
        -65.76505983906819,
        0.0,
        3.292879768856949e-06,
        99.99999999999989,
        -2.874682403231077e-06,
        0.0,
        0.21938681602478027,
        43.34782409667969,
        -47.90324401855469,
        1.0
      ],
      "name": "barrel"
    },
    {
      "mesh": 0,
      "name": "barrel_barrel_0"
    }
  ],
  "samplers": [
    {
      "magFilter": 9729,
      "minFilter": 9987,
      "wrapS": 10497,
      "wrapT": 10497
    }
  ],
  "scene": 0,
  "scenes": [
    {
      "name": "Sketchfab_Scene",
      "nodes": [
        0
      ]
    }
  ],
  "textures": [
    {
      "sampler": 0,
      "source": 0
    },
    {
      "sampler": 0,
      "source": 1
    },
    {
      "sampler": 0,
      "source": 2
    }
  ]
}
