{
  "accessors": [
    {
      "bufferView": 2,
      "componentType": 5126,
      "count": 2040,
      "max": [
        277.48248291015625,
        92.89311981201172,
        269.88360595703125
      ],
      "min": [
        -270.63275146484375,
        48.302669525146484,
        -261.4359130859375
      ],
      "type": "VEC3"
    },
    {
      "bufferView": 2,
      "byteOffset": 24480,
      "componentType": 5126,
      "count": 2040,
      "max": [
        0.516852617263794,
        0.9964420199394226,
        0.506932258605957
      ],
      "min": [
        -0.5061500668525696,
        0.8536491394042969,
        -0.4958317279815674
      ],
      "type": "VEC3"
    },
    {
      "bufferView": 3,
      "componentType": 5126,
      "count": 2040,
      "max": [
        0.9998877644538879,
        0.19555987417697906,
        0.9997318387031555,
        -1.0
      ],
      "min": [
        -0.9999844431877136,
        -0.2409055083990097,
        -0.9999417066574097,
        -1.0
      ],
      "type": "VEC4"
    },
    {
      "bufferView": 1,
      "componentType": 5126,
      "count": 2040,
      "max": [
        1.0500999689102173,
        0.05000000074505806
      ],
      "min": [
        -0.04989999905228615,
        -1.0499999523162842
      ],
      "type": "VEC2"
    },
    {
      "bufferView": 0,
      "componentType": 5125,
      "count": 8640,
      "type": "SCALAR"
    },
    {
      "bufferView": 2,
      "byteOffset": 48960,
      "componentType": 5126,
      "count": 5124,
      "max": [
        268.6852111816406,
        78.90453338623047,
        283.0458068847656
      ],
      "min": [
        -274.4105529785156,
        -5.084750175476074,
        -265.9103088378906
      ],
      "type": "VEC3"
    },
    {
      "bufferView": 2,
      "byteOffset": 110448,
      "componentType": 5126,
      "count": 5124,
      "max": [
        0.9907148480415344,
        0.9999985694885254,
        0.9906519055366516
      ],
      "min": [
        -0.9883767366409302,
        0.10799960047006607,
        -0.9887736439704895
      ],
      "type": "VEC3"
    },
    {
      "bufferView": 3,
      "byteOffset": 32640,
      "componentType": 5126,
      "count": 5124,
      "max": [
        0.9999092221260071,
        0.6277949810028076,
        0.9998303055763245,
        1.0
      ],
      "min": [
        -0.9999577403068542,
        -0.6727107763290405,
        -0.9999800324440002,
        -1.0
      ],
      "type": "VEC4"
    },
    {
      "bufferView": 1,
      "byteOffset": 16320,
      "componentType": 5126,
      "count": 5124,
      "max": [
        0.9986100196838379,
        -0.0014900000533089042
      ],
      "min": [
        0.0015899999998509884,
        -0.9985100030899048
      ],
      "type": "VEC2"
    },
    {
      "bufferView": 0,
      "byteOffset": 34560,
      "componentType": 5125,
      "count": 15360,
      "type": "SCALAR"
    },
    {
      "bufferView": 2,
      "byteOffset": 171936,
      "componentType": 5126,
      "count": 9600,
      "max": [
        265.552001953125,
        80.30574798583984,
        261.7712097167969
      ],
      "min": [
        -260.8545227050781,
        -6.554299831390381,
        -252.50527954101563
      ],
      "type": "VEC3"
    },
    {
      "bufferView": 2,
      "byteOffset": 287136,
      "componentType": 5126,
      "count": 9600,
      "max": [
        0.9999368786811829,
        0.6747674942016602,
        0.9998360872268677
      ],
      "min": [
        -0.999864399433136,
        -0.9954396486282349,
        -0.9996992945671082
      ],
      "type": "VEC3"
    },
    {
      "bufferView": 3,
      "byteOffset": 114624,
      "componentType": 5126,
      "count": 9600,
      "max": [
        0.9998608231544495,
        0.6227849125862122,
        0.9999313950538635,
        1.0
      ],
      "min": [
        -0.999843418598175,
        -0.5959072709083557,
        -0.9997358918190002,
        -1.0
      ],
      "type": "VEC4"
    },
    {
      "bufferView": 1,
      "byteOffset": 57312,
      "componentType": 5126,
      "count": 9600,
      "max": [
        0.9985399842262268,
        0.0
      ],
      "min": [
        0.0004900000058114529,
        -1.0
      ],
      "type": "VEC2"
    },
    {
      "bufferView": 0,
      "byteOffset": 96000,
      "componentType": 5125,
      "count": 45360,
      "type": "SCALAR"
    }
  ],
  "asset": {
    "extras": {
      "author": "evolveduk (https://sketchfab.com/evolveduk)",
      "license": "CC-BY-4.0 (http://creativecommons.org/licenses/by/4.0/)",
      "source": "https://sketchfab.com/3d-models/daisies-c914e2eb8bab46e0b60b891aa4b125fe",
      "title": "Daisies"
    },
    "generator": "Sketchfab-13.23.0",
    "version": "2.0"
  },
  "bufferViews": [
    {
      "buffer": 0,
      "byteLength": 277440,
      "name": "floatBufferViews",
      "target": 34963
    },
    {
      "buffer": 0,
      "byteLength": 134112,
      "byteOffset": 277440,
      "byteStride": 8,
      "name": "floatBufferViews",
      "target": 34962
    },
    {
      "buffer": 0,
      "byteLength": 402336,
      "byteOffset": 411552,
      "byteStride": 12,
      "name": "floatBufferViews",
      "target": 34962
    },
    {
      "buffer": 0,
      "byteLength": 268224,
      "byteOffset": 813888,
      "byteStride": 16,
      "name": "floatBufferViews",
      "target": 34962
    }
  ],
  "buffers": [
    {
      "byteLength": 1082112,
      "uri": "scene.bin"
    }
  ],
  "images": [
    {
      "uri": "textures/Tree_0Mat_baseColor.png"
    },
    {
      "uri": "textures/Tree_0Mat_metallicRoughness.png"
    },
    {
      "uri": "textures/Tree_0Mat_normal.png"
    },
    {
      "uri": "textures/Tree_1Mat_baseColor.png"
    },
    {
      "uri": "textures/Tree_1Mat_metallicRoughness.png"
    },
    {
      "uri": "textures/Tree_1Mat_normal.png"
    },
    {
      "uri": "textures/Tree_2Mat_baseColor.png"
    },
    {
      "uri": "textures/Tree_2Mat_metallicRoughness.png"
    },
    {
      "uri": "textures/Tree_2Mat_normal.png"
    }
  ],
  "materials": [
    {
      "alphaCutoff": 0.5552083015,
      "alphaMode": "MASK",
      "doubleSided": true,
      "name": "Tree_0Mat",
      "normalTexture": {
        "index": 2
      },
      "pbrMetallicRoughness": {
        "baseColorTexture": {
          "index": 0
        },
        "metallicFactor": 0.0,
        "metallicRoughnessTexture": {
          "index": 1
        }
      }
    },
    {
      "alphaCutoff": 0.2888138805901232,
      "alphaMode": "MASK",
      "doubleSided": true,
      "name": "Tree_1Mat",
      "normalTexture": {
        "index": 5
      },
      "pbrMetallicRoughness": {
        "baseColorTexture": {
          "index": 3
        },
        "metallicFactor": 0.0,
        "metallicRoughnessTexture": {
          "index": 4
        }
      }
    },
    {
      "doubleSided": true,
      "name": "Tree_2Mat",
      "normalTexture": {
        "index": 8
      },
      "pbrMetallicRoughness": {
        "baseColorTexture": {
          "index": 6
        },
        "metallicFactor": 0.0,
        "metallicRoughnessTexture": {
          "index": 7
        }
      }
    }
  ],
  "meshes": [
    {
      "name": "Tree_0_Tree_0Mat_0",
      "primitives": [
        {
          "attributes": {
            "NORMAL": 1,
            "POSITION": 0,
            "TANGENT": 2,
            "TEXCOORD_0": 3
          },
          "indices": 4,
          "material": 0,
          "mode": 4
        }
      ]
    },
    {
      "name": "Tree_1_Tree_1Mat_0",
      "primitives": [
        {
          "attributes": {
            "NORMAL": 6,
            "POSITION": 5,
            "TANGENT": 7,
            "TEXCOORD_0": 8
          },
          "indices": 9,
          "material": 1,
          "mode": 4
        }
      ]
    },
    {
      "name": "Tree_2_Tree_2Mat_0",
      "primitives": [
        {
          "attributes": {
            "NORMAL": 11,
            "POSITION": 10,
            "TANGENT": 12,
            "TEXCOORD_0": 13
          },
          "indices": 14,
          "material": 2,
          "mode": 4
        }
      ]
    }
  ],
  "nodes": [
    {
      "children": [
        1
      ],
      "matrix": [
        1.0,
        0.0,
        0.0,
        0.0,
        0.0,
        2.220446049250313e-16,
        -1.0,
        0.0,
        0.0,
        1.0,
        2.220446049250313e-16,
        0.0,
        0.0,
        0.0,
        0.0,
        1.0
      ],
      "name": "Sketchfab_model"
    },
    {
      "children": [
        2
      ],
      "matrix": [
        0.009999999776482582,
        0.0,
        0.0,
        0.0,
        0.0,
        0.0,
        0.009999999776482582,
        0.0,
        0.0,
        -0.009999999776482582,
        0.0,
        0.0,
        0.0,
        0.0,
        0.0,
        1.0
      ],
      "name": "daisies.fbx"
    },
    {
      "children": [
        3
      ],
      "name": "RootNode"
    },
    {
      "children": [
        4,
        5
      ],
      "name": "Tree_0"
    },
    {
      "mesh": 0,
      "name": "Tree_0_Tree_0Mat_0"
    },
    {
      "children": [
        6,
        7
      ],
      "name": "Tree_1"
    },
    {
      "mesh": 1,
      "name": "Tree_1_Tree_1Mat_0"
    },
    {
      "children": [
        8
      ],
      "name": "Tree_2"
    },
    {
      "mesh": 2,
      "name": "Tree_2_Tree_2Mat_0"
    }
  ],
  "samplers": [
    {
      "magFilter": 9729,
      "minFilter": 9987,
      "wrapS": 10497,
      "wrapT": 10497
    }
  ],
  "scene": 0,
  "scenes": [
    {
      "name": "Sketchfab_Scene",
      "nodes": [
        0
      ]
    }
  ],
  "textures": [
    {
      "sampler": 0,
      "source": 0
    },
    {
      "sampler": 0,
      "source": 1
    },
    {
      "sampler": 0,
      "source": 2
    },
    {
      "sampler": 0,
      "source": 3
    },
    {
      "sampler": 0,
      "source": 4
    },
    {
      "sampler": 0,
      "source": 5
    },
    {
      "sampler": 0,
      "source": 6
    },
    {
      "sampler": 0,
      "source": 7
    },
    {
      "sampler": 0,
      "source": 8
    }
  ]
}
