{
  "accessors": [
    {
      "bufferView": 2,
      "componentType": 5126,
      "count": 4810,
      "max": [
        0.3729545474052429,
        1.000000238418579,
        0.40616607666015625
      ],
      "min": [
        -1.0,
        -2.2259671688079834,
        -0.1970996856689453
      ],
      "type": "VEC3"
    },
    {
      "bufferView": 2,
      "byteOffset": 57720,
      "componentType": 5126,
      "count": 4810,
      "max": [
        0.9993056058883667,
        0.9971962571144104,
        1.0
      ],
      "min": [
        -0.9992947578430176,
        -0.9810081124305725,
        -0.9999988079071045
      ],
      "type": "VEC3"
    },
    {
      "bufferView": 1,
      "componentType": 5126,
      "count": 4810,
      "max": [
        1.0000001192092896,
        1.0000001192092896
      ],
      "min": [
        0.0,
        0.0
      ],
      "type": "VEC2"
    },
    {
      "bufferView": 0,
      "componentType": 5125,
      "count": 23232,
      "type": "SCALAR"
    },
    {
      "bufferView": 2,
      "byteOffset": 115440,
      "componentType": 5126,
      "count": 60,
      "max": [
        0.9510565400123596,
        1.0,
        1.0
      ],
      "min": [
        -0.9510564804077148,
        -1.0,
        -1.0
      ],
      "type": "VEC3"
    },
    {
      "bufferView": 2,
      "byteOffset": 116160,
      "componentType": 5126,
      "count": 60,
      "max": [
        1.0,
        0.9510565996170044,
        1.0
      ],
      "min": [
        -1.0,
        -0.9510566592216492,
        -1.0
      ],
      "type": "VEC3"
    },
    {
      "bufferView": 1,
      "byteOffset": 38480,
      "componentType": 5126,
      "count": 60,
      "max": [
        0.9782535433769226,
        0.7987997531890869
      ],
      "min": [
        0.021746456623077393,
        0.01000000536441803
      ],
      "type": "VEC2"
    },
    {
      "bufferView": 0,
      "byteOffset": 92928,
      "componentType": 5125,
      "count": 108,
      "type": "SCALAR"
    }
  ],
  "asset": {
    "extras": {
      "author": "aqeelahmadshoaib (https://sketchfab.com/aqeelahmadshoaib)",
      "license": "CC-BY-4.0 (http://creativecommons.org/licenses/by/4.0/)",
      "source": "https://sketchfab.com/3d-models/flag-defb1b6416d14eaea97f7d79c34e8fed",
      "title": "flag"
    },
    "generator": "Sketchfab-12.67.0",
    "version": "2.0"
  },
  "bufferViews": [
    {
      "buffer": 0,
      "byteLength": 93360,
      "name": "floatBufferViews",
      "target": 34963
    },
    {
      "buffer": 0,
      "byteLength": 38960,
      "byteOffset": 93360,
      "byteStride": 8,
      "name": "floatBufferViews",
      "target": 34962
    },
    {
      "buffer": 0,
      "byteLength": 116880,
      "byteOffset": 132320,
      "byteStride": 12,
      "name": "floatBufferViews",
      "target": 34962
    }
  ],
  "buffers": [
    {
      "byteLength": 249200,
      "uri": "scene.bin"
    }
  ],
  "images": [
    {
      "uri": "textures/flag_baseColor.png"
    }
  ],
  "materials": [
    {
      "doubleSided": true,
      "name": "flag",
      "pbrMetallicRoughness": {
        "baseColorTexture": {
          "index": 0
        },
        "metallicFactor": 0.0,
        "roughnessFactor": 0.8211145618000169
      }
    }
  ],
  "meshes": [
    {
      "name": "Plane.002_flag_0",
      "primitives": [
        {
          "attributes": {
            "NORMAL": 1,
            "POSITION": 0,
            "TEXCOORD_0": 2
          },
          "indices": 3,
          "material": 0,
          "mode": 4
        }
      ]
    },
    {
      "name": "Cylinder_flag_0",
      "primitives": [
        {
          "attributes": {
            "NORMAL": 5,
            "POSITION": 4,
            "TEXCOORD_0": 6
          },
          "indices": 7,
          "material": 0,
          "mode": 4
        }
      ]
    }
  ],
  "nodes": [
    {
      "children": [
        1
      ],
      "matrix": [
        1.0,
        0.0,
        0.0,
        0.0,
        0.0,
        2.220446049250313e-16,
        -1.0,
        0.0,
        0.0,
        1.0,
        2.220446049250313e-16,
        0.0,
        0.0,
        0.0,
        0.0,
        1.0
      ],
      "name": "Sketchfab_model"
    },
    {
      "children": [
        2
      ],
      "matrix": [
        0.009999999776482582,
        0.0,
        0.0,
        0.0,
        0.0,
        0.0,
        0.009999999776482582,
        0.0,
        0.0,
        -0.009999999776482582,
        0.0,
        0.0,
        0.0,
        0.0,
        0.0,
        1.0
      ],
      "name": "40e101971ed04a7382f0374bc3be3d2e.fbx"
    },
    {
      "children": [
        3,
        5
      ],
      "name": "RootNode"
    },
    {
      "children": [
        4
      ],
      "matrix": [
        104.98644256591797,
        0.0,
        0.0,
        0.0,
        0.0,
        66.13127899169915,
        2.8906902488502588e-06,
        0.0,
        0.0,
        -2.8906902488502588e-06,
        66.13127899169915,
        0.0,
        -30.9390811920166,
        240.3703155517578,
        -1418.328125,
        1.0
      ],
      "name": "Plane.002"
    },
    {
      "mesh": 0,
      "name": "Plane.002_flag_0"
    },
    {
      "children": [
        6
      ],
      "matrix": [
        3.8114428520202637,
        0.0,
        0.0,
        0.0,
        -0.0,
        -6.209628589142809e-07,
        -3.8114428520202135,
        0.0,
        0.0,
        141.5144500732403,
        -2.3055630349694024e-05,
        0.0,
        -128.89187622070313,
        173.1152801513672,
        -1423.4361572265625,
        1.0
      ],
      "name": "Cylinder"
    },
    {
      "mesh": 1,
      "name": "Cylinder_flag_0"
    }
  ],
  "samplers": [
    {
      "magFilter": 9729,
      "minFilter": 9987,
      "wrapS": 10497,
      "wrapT": 10497
    }
  ],
  "scene": 0,
  "scenes": [
    {
      "name": "Sketchfab_Scene",
      "nodes": [
        0
      ]
    }
  ],
  "textures": [
    {
      "sampler": 0,
      "source": 0
    }
  ]
}
