{
  "accessors": [
    {
      "bufferView": 2,
      "componentType": 5126,
      "count": 10010,
      "max": [
        157.43994140625,
        385.6161804199219,
        134.77613830566406
      ],
      "min": [
        -128.94822692871094,
        0.0,
        -147.68772888183594
      ],
      "type": "VEC3"
    },
    {
      "bufferView": 2,
      "byteOffset": 120120,
      "componentType": 5126,
      "count": 10010,
      "max": [
        0.9998370409011841,
        0.998255729675293,
        0.9999760985374451
      ],
      "min": [
        -0.9999595284461975,
        -0.9982985258102417,
        -0.9999856948852539
      ],
      "type": "VEC3"
    },
    {
      "bufferView": 3,
      "componentType": 5126,
      "count": 10010,
      "max": [
        0.9996816515922546,
        0.9999792575836182,
        0.9994232654571533,
        1.0
      ],
      "min": [
        -0.999801516532898,
        -0.9999460577964783,
        -0.9998103976249695,
        1.0
      ],
      "type": "VEC4"
    },
    {
      "bufferView": 1,
      "componentType": 5126,
      "count": 10010,
      "max": [
        -0.0014600000577047467,
        9.190850257873535
      ],
      "min": [
        -0.9995099902153015,
        0.0
      ],
      "type": "VEC2"
    },
    {
      "bufferView": 0,
      "componentType": 5125,
      "count": 22581,
      "type": "SCALAR"
    },
    {
      "bufferView": 2,
      "byteOffset": 240240,
      "componentType": 5126,
      "count": 10656,
      "max": [
        162.07337951660156,
        388.6974182128906,
        140.50570678710938
      ],
      "min": [
        -131.18617248535156,
        66.1533432006836,
        -151.45021057128906
      ],
      "type": "VEC3"
    },
    {
      "bufferView": 2,
      "byteOffset": 368112,
      "componentType": 5126,
      "count": 10656,
      "max": [
        0.9996041655540466,
        0.999925971031189,
        0.9997745156288147
      ],
      "min": [
        -0.9996201395988464,
        -0.6889563202857971,
        -0.9996488094329834
      ],
      "type": "VEC3"
    },
    {
      "bufferView": 3,
      "byteOffset": 160160,
      "componentType": 5126,
      "count": 10656,
      "max": [
        0.9995556473731995,
        0.9998807311058044,
        0.9989973306655884,
        -1.0
      ],
      "min": [
        -0.9996955394744873,
        -0.9998149871826172,
        -0.9995690584182739,
        -1.0
      ],
      "type": "VEC4"
    },
    {
      "bufferView": 1,
      "byteOffset": 80080,
      "componentType": 5126,
      "count": 10656,
      "max": [
        0.9986100196838379,
        -0.0014900000533089042
      ],
      "min": [
        0.0015899999998509884,
        -0.9985100030899048
      ],
      "type": "VEC2"
    },
    {
      "bufferView": 0,
      "byteOffset": 90324,
      "componentType": 5125,
      "count": 15984,
      "type": "SCALAR"
    }
  ],
  "asset": {
    "extras": {
      "author": "evolveduk (https://sketchfab.com/evolveduk)",
      "license": "CC-BY-4.0 (http://creativecommons.org/licenses/by/4.0/)",
      "source": "https://sketchfab.com/3d-models/maple-tree-b5e945e7abcc471da6547c04e314774c",
      "title": "Maple Tree"
    },
    "generator": "Sketchfab-12.94.0",
    "version": "2.0"
  },
  "bufferViews": [
    {
      "buffer": 0,
      "byteLength": 154260,
      "name": "floatBufferViews",
      "target": 34963
    },
    {
      "buffer": 0,
      "byteLength": 165328,
      "byteOffset": 154260,
      "byteStride": 8,
      "name": "floatBufferViews",
      "target": 34962
    },
    {
      "buffer": 0,
      "byteLength": 495984,
      "byteOffset": 319588,
      "byteStride": 12,
      "name": "floatBufferViews",
      "target": 34962
    },
    {
      "buffer": 0,
      "byteLength": 330656,
      "byteOffset": 815572,
      "byteStride": 16,
      "name": "floatBufferViews",
      "target": 34962
    }
  ],
  "buffers": [
    {
      "byteLength": 1146228,
      "uri": "scene.bin"
    }
  ],
  "images": [
    {
      "uri": "textures/Tree_0Mat_baseColor.png"
    },
    {
      "uri": "textures/Tree_0Mat_metallicRoughness.png"
    },
    {
      "uri": "textures/Tree_0Mat_normal.png"
    },
    {
      "uri": "textures/Tree_1Mat_baseColor.png"
    },
    {
      "uri": "textures/Tree_1Mat_metallicRoughness.png"
    },
    {
      "uri": "textures/Tree_1Mat_normal.png"
    }
  ],
  "materials": [
    {
      "name": "Tree_0Mat",
      "normalTexture": {
        "index": 2
      },
      "pbrMetallicRoughness": {
        "baseColorTexture": {
          "index": 0
        },
        "metallicFactor": 0.0,
        "metallicRoughnessTexture": {
          "index": 1
        }
      }
    },
    {
      "alphaCutoff": 0.006623146765975487,
      "alphaMode": "MASK",
      "doubleSided": true,
      "name": "Tree_1Mat",
      "normalTexture": {
        "index": 5
      },
      "pbrMetallicRoughness": {
        "baseColorTexture": {
          "index": 3
        },
        "metallicFactor": 0.0,
        "metallicRoughnessTexture": {
          "index": 4
        }
      }
    }
  ],
  "meshes": [
    {
      "name": "Tree_0_Tree_0Mat_0",
      "primitives": [
        {
          "attributes": {
            "NORMAL": 1,
            "POSITION": 0,
            "TANGENT": 2,
            "TEXCOORD_0": 3
          },
          "indices": 4,
          "material": 0,
          "mode": 4
        }
      ]
    },
    {
      "name": "Tree_1_Tree_1Mat_0",
      "primitives": [
        {
          "attributes": {
            "NORMAL": 6,
            "POSITION": 5,
            "TANGENT": 7,
            "TEXCOORD_0": 8
          },
          "indices": 9,
          "material": 1,
          "mode": 4
        }
      ]
    }
  ],
  "nodes": [
    {
      "children": [
        1
      ],
      "matrix": [
        2.6927568912506104,
        0.0,
        0.0,
        0.0,
        0.0,
        5.979121400768973e-16,
        -2.6927568912506104,
        0.0,
        0.0,
        2.6927568912506104,
        5.979121400768973e-16,
        0.0,
        0.0,
        0.0,
        0.0,
        1.0
      ],
      "name": "Sketchfab_model"
    },
    {
      "children": [
        2
      ],
      "matrix": [
        0.009999999776482582,
        0.0,
        0.0,
        0.0,
        0.0,
        0.0,
        0.009999999776482582,
        0.0,
        0.0,
        -0.009999999776482582,
        0.0,
        0.0,
        0.0,
        0.0,
        0.0,
        1.0
      ],
      "name": "maple.fbx"
    },
    {
      "children": [
        3
      ],
      "name": "RootNode"
    },
    {
      "children": [
        4,
        5
      ],
      "name": "Tree_0"
    },
    {
      "mesh": 0,
      "name": "Tree_0_Tree_0Mat_0"
    },
    {
      "children": [
        6
      ],
      "name": "Tree_1"
    },
    {
      "mesh": 1,
      "name": "Tree_1_Tree_1Mat_0"
    }
  ],
  "samplers": [
    {
      "magFilter": 9729,
      "minFilter": 9987,
      "wrapS": 10497,
      "wrapT": 10497
    }
  ],
  "scene": 0,
  "scenes": [
    {
      "name": "Sketchfab_Scene",
      "nodes": [
        0
      ]
    }
  ],
  "textures": [
    {
      "sampler": 0,
      "source": 0
    },
    {
      "sampler": 0,
      "source": 1
    },
    {
      "sampler": 0,
      "source": 2
    },
    {
      "sampler": 0,
      "source": 3
    },
    {
      "sampler": 0,
      "source": 4
    },
    {
      "sampler": 0,
      "source": 5
    }
  ]
}
