{
  "asset": {
    "version": "2.0",
    "generator": "THREE.GLTFExporter"
  },
  "scenes": [
    {
      "name": "Scene",
      "nodes": [
        30
      ]
    }
  ],
  "scene": 0,
  "nodes": [
    {
      "name": "BARRIER1",
      "extras": {
        "name": "BARRIER1"
      }
    },
    {
      "name": "BARRIER11",
      "extras": {
        "name": "BARRIER11"
      }
    },
    {
      "name": "BARRIER12",
      "extras": {
        "name": "BARRIER12"
      }
    },
    {
      "name": "BARRIER15",
      "extras": {
        "name": "BARRIER15"
      }
    },
    {
      "name": "BARRIER2",
      "extras": {
        "name": "BARRIER2"
      }
    },
    {
      "name": "BARRIER3",
      "extras": {
        "name": "BARRIER3"
      }
    },
    {
      "name": "BARRIER4",
      "extras": {
        "name": "BARRIER4"
      }
    },
    {
      "name": "BARRIER5",
      "extras": {
        "name": "BARRIER5"
      }
    },
    {
      "name": "BARRIER6",
      "extras": {
        "name": "BARRIER6"
      }
    },
    {
      "name": "BARRIER7",
      "extras": {
        "name": "BARRIER7"
      }
    },
    {
      "name": "BARRIER8",
      "extras": {
        "name": "BARRIER8"
      }
    },
    {
      "name": "BARRIER9",
      "extras": {
        "name": "BARRIER9"
      }
    },
    {
      "name": "BARRIER_PITS",
      "extras": {
        "name": "BARRIER_PITS"
      }
    },
    {
      "name": "BARRIER_PITS001",
      "extras": {
        "name": "BARRIER_PITS.001"
      }
    },
    {
      "name": "BARRIER_PITS002",
      "extras": {
        "name": "BARRIER_PITS.002"
      }
    },
    {
      "name": "BARRIER_PITS003",
      "extras": {
        "name": "BARRIER_PITS.003"
      }
    },
    {
      "name": "BRR",
      "extras": {
        "name": "BRR"
      }
    },
    {
      "name": "Cube",
      "extras": {
        "name": "Cube"
      }
    },
    {
      "name": "PARKING",
      "extras": {
        "name": "PARKING"
      }
    },
    {
      "name": "Plane009",
      "extras": {
        "name": "Plane.009"
      }
    },
    {
      "name": "Plane010",
      "extras": {
        "name": "Plane.010"
      }
    },
    {
      "name": "Plane011",
      "extras": {
        "name": "Plane.011"
      }
    },
    {
      "name": "Plane012",
      "extras": {
        "name": "Plane.012"
      }
    },
    {
      "name": "Plane013",
      "extras": {
        "name": "Plane.013"
      }
    },
    {
      "name": "TRACK_Material001_0",
      "extras": {
        "name": "TRACK_Material.001_0"
      },
      "mesh": 0
    },
    {
      "name": "TRACK",
      "extras": {
        "name": "TRACK"
      },
      "children": [
        24
      ]
    },
    {
      "name": "TRACK001",
      "extras": {
        "name": "TRACK.001"
      }
    },
    {
      "name": "RootNode",
      "extras": {
        "name": "RootNode"
      },
      "children": [
        0,
        1,
        2,
        3,
        4,
        5,
        6,
        7,
        8,
        9,
        10,
        11,
        12,
        13,
        14,
        15,
        16,
        17,
        18,
        19,
        20,
        21,
        22,
        23,
        25,
        26
      ]
    },
    {
      "matrix": [
        0.009999999776482582,
        0,
        0,
        0,
        0,
        2.2204459996194763e-18,
        0.009999999776482582,
        0,
        0,
        -0.009999999776482582,
        2.2204459996194763e-18,
        0,
        0,
        0,
        0,
        1
      ],
      "name": "0a7648dea82e42f1a31370d7be6d5237fbx",
      "extras": {
        "name": "0a7648dea82e42f1a31370d7be6d5237.fbx"
      },
      "children": [
        27
      ]
    },
    {
      "matrix": [
        1,
        0,
        0,
        0,
        0,
        2.220446049250313e-16,
        -1,
        0,
        0,
        1,
        2.220446049250313e-16,
        0,
        0,
        0,
        0,
        1
      ],
      "name": "Sketchfab_model",
      "extras": {
        "name": "Sketchfab_model"
      },
      "children": [
        28
      ]
    },
    {
      "name": "Sketchfab_Scene",
      "children": [
        29
      ]
    }
  ],
  "bufferViews": [
    {
      "buffer": 0,
      "byteOffset": 0,
      "byteLength": 53004,
      "target": 34962,
      "byteStride": 12
    },
    {
      "buffer": 0,
      "byteOffset": 53004,
      "byteLength": 53004,
      "target": 34962,
      "byteStride": 12
    },
    {
      "buffer": 0,
      "byteOffset": 106008,
      "byteLength": 35336,
      "target": 34962,
      "byteStride": 8
    },
    {
      "buffer": 0,
      "byteOffset": 141344,
      "byteLength": 72852,
      "target": 34963
    }
  ],
  "buffers": [
    {
      "byteLength": 214196,
      "uri": "data:application/octet-stream;base64,"
    }
  ],
  "accessors": [
    {
      "bufferView": 0,
      "componentType": 5126,
      "count": 4417,
      "max": [
        0.16486909985542297,
        1,
        0.17181406915187836
      ],
      "min": [
        -0.16909795999526978,
        0.9848534464836121,
        -0.16471557319164276
      ],
      "type": "VEC3"
    },
    {
      "bufferView": 1,
      "componentType": 5126,
      "count": 4417,
      "max": [
        235.63299560546875,
        0.5117417573928833,
        107.35102844238281
      ],
      "min": [
        -150.55712890625,
        0.44531646370887756,
        -60.64999008178711
      ],
      "type": "VEC3"
    },
    {
      "bufferView": 2,
      "componentType": 5126,
      "count": 4417,
      "max": [
        0.7488189935684204,
        0.9990817308425903
      ],
      "min": [
        0.10781210660934448,
        0
      ],
      "type": "VEC2"
    },
    {
      "bufferView": 3,
      "componentType": 5125,
      "count": 18213,
      "max": [
        4416
      ],
      "min": [
        0
      ],
      "type": "SCALAR"
    }
  ],
  "materials": [
    {
      "pbrMetallicRoughness": {
        "metallicFactor": 0,
        "roughnessFactor": 0.8026847447501058,
        "baseColorTexture": {
          "index": 0
        }
      },
      "doubleSided": true,
      "name": "Material.001"
    }
  ],
  "textures": [
    {
      "sampler": 0,
      "source": 0
    }
  ],
  "samplers": [
    {
      "magFilter": 9729,
      "minFilter": 9987,
      "wrapS": 33071,
      "wrapT": 33071
    }
  ],
  "images": [
    {
      "mimeType": "image/png",
      "uri": "data:image/png;base64,"
    }
  ],
  "meshes": [
    {
      "primitives": [
        {
          "mode": 4,
          "attributes": {
            "NORMAL": 0,
            "POSITION": 1,
            "TEXCOORD_0": 2
          },
          "indices": 3,
          "material": 0
        }
      ]
    }
  ]
}